<svg xmlns="http://www.w3.org/2000/svg" xmlns:xlink="http://www.w3.org/1999/xlink" width="500" zoomAndPan="magnify" viewBox="0 0 375 374.999991" height="500" preserveAspectRatio="xMidYMid meet" version="1.0"><defs><clipPath id="c235c0a3e3"><path d="M 110.113281 4.605469 L 358.953125 4.605469 L 358.953125 29.761719 L 110.113281 29.761719 Z M 110.113281 4.605469 " clip-rule="nonzero"/></clipPath><clipPath id="c9375feca6"><path d="M 17.011719 4.605469 L 112.542969 4.605469 L 112.542969 29.761719 L 17.011719 29.761719 Z M 17.011719 4.605469 " clip-rule="nonzero"/></clipPath><clipPath id="910673443f"><path d="M 16.941406 4.441406 L 357.832031 4.441406 L 357.832031 29.941406 L 16.941406 29.941406 Z M 16.941406 4.441406 " clip-rule="nonzero"/></clipPath><clipPath id="91a8cfe85b"><path d="M 16.988281 4.851562 L 357.328125 4.851562 L 357.328125 29.601562 L 16.988281 29.601562 Z M 16.988281 4.851562 " clip-rule="nonzero"/></clipPath></defs><g clip-path="url(#c235c0a3e3)"><path fill="#ffffff" d="M 110.113281 4.605469 L 358.980469 4.605469 L 358.980469 29.761719 L 110.113281 29.761719 Z M 110.113281 4.605469 " fill-opacity="1" fill-rule="nonzero"/></g><g clip-path="url(#c9375feca6)"><path fill="#e3000f" d="M 17.011719 4.605469 L 112.570312 4.605469 L 112.570312 29.761719 L 17.011719 29.761719 Z M 17.011719 4.605469 " fill-opacity="1" fill-rule="nonzero"/></g><path fill="#ffffff" d="M 27.566406 24.675781 L 27.566406 13.433594 L 20.957031 13.433594 L 20.957031 9.761719 L 38.71875 9.761719 L 38.71875 13.433594 L 32.109375 13.433594 L 32.109375 24.675781 Z M 27.566406 24.675781 " fill-opacity="1" fill-rule="nonzero"/><path fill="#ffffff" d="M 40.222656 9.761719 L 44.742188 9.761719 L 44.742188 17.101562 C 44.742188 17.246094 44.742188 17.375 44.742188 17.496094 C 44.742188 17.597656 44.742188 17.664062 44.742188 17.679688 C 44.742188 18.554688 44.773438 19.164062 44.84375 19.511719 C 45.015625 20.457031 45.679688 21 46.828125 21.136719 C 47.351562 21.210938 48.160156 21.242188 49.257812 21.242188 C 50.878906 21.242188 52.015625 21.214844 52.679688 21.164062 C 53.703125 21.078125 54.332031 20.691406 54.558594 20.011719 C 54.714844 19.558594 54.78125 18.851562 54.769531 17.886719 L 54.769531 9.761719 L 59.285156 9.761719 L 59.285156 17.574219 C 59.285156 19.40625 59.207031 20.6875 59.050781 21.398438 C 58.699219 22.867188 57.71875 23.863281 56.101562 24.386719 C 55.316406 24.648438 54.226562 24.792969 52.835938 24.832031 C 53.445312 24.8125 52.351562 24.808594 49.570312 24.808594 C 47.273438 24.808594 45.667969 24.761719 44.765625 24.675781 C 42.324219 24.453125 40.902344 23.367188 40.484375 21.425781 C 40.308594 20.640625 40.222656 19.425781 40.222656 17.78125 Z M 48.65625 5.464844 L 48.65625 8.085938 L 44.765625 8.085938 L 44.765625 5.464844 Z M 54.714844 5.464844 L 54.714844 8.085938 L 50.824219 8.085938 L 50.824219 5.464844 Z M 54.714844 5.464844 " fill-opacity="1" fill-rule="nonzero"/><path fill="#ffffff" d="M 64.476562 24.675781 L 64.476562 9.761719 L 77.296875 9.761719 C 78.792969 9.761719 79.863281 9.839844 80.511719 10 C 81.671875 10.3125 82.449219 10.960938 82.835938 11.9375 C 83.097656 12.621094 83.226562 13.511719 83.226562 14.613281 C 83.226562 16.414062 82.796875 17.613281 81.945312 18.203125 C 81.507812 18.515625 80.550781 18.792969 79.074219 19.015625 C 79.242188 19.015625 79.492188 19.027344 79.804688 19.042969 C 80.863281 19.09375 81.582031 19.238281 81.945312 19.460938 C 82.660156 19.917969 83.015625 20.871094 83.015625 22.316406 L 83.015625 24.675781 L 78.421875 24.675781 L 78.421875 22.816406 C 78.421875 21.703125 78.03125 21.078125 77.246094 20.953125 C 76.996094 20.921875 76.566406 20.902344 75.941406 20.902344 L 68.96875 20.902344 L 68.96875 24.675781 Z M 68.96875 17.257812 L 76.042969 17.257812 C 76.984375 17.257812 77.597656 17.199219 77.898438 17.074219 C 78.421875 16.867188 78.683594 16.367188 78.683594 15.582031 C 78.683594 14.625 78.507812 14.007812 78.160156 13.746094 C 77.859375 13.523438 77.21875 13.40625 76.226562 13.40625 L 68.96875 13.40625 Z M 68.96875 17.257812 " fill-opacity="1" fill-rule="nonzero"/><path fill="#ffffff" d="M 88.328125 24.675781 L 88.328125 9.761719 L 92.847656 9.761719 L 92.847656 15.320312 L 95.222656 15.320312 L 101.359375 9.761719 L 107.574219 9.761719 L 99.0625 17.128906 L 108.4375 24.675781 L 101.855469 24.675781 L 95.117188 18.9375 L 92.847656 18.9375 L 92.847656 24.675781 Z M 88.328125 24.675781 " fill-opacity="1" fill-rule="nonzero"/><path fill="#e3000f" d="M 116.515625 25.925781 L 116.515625 10.769531 L 130.960938 10.769531 L 130.960938 12.289062 L 118.328125 12.289062 L 118.328125 17.503906 L 130.324219 17.503906 L 130.324219 18.953125 L 118.328125 18.953125 L 118.328125 25.925781 Z M 116.515625 25.925781 " fill-opacity="1" fill-rule="nonzero"/><path fill="#e3000f" d="M 138.1875 25.925781 L 138.1875 10.769531 L 153.242188 10.769531 L 153.242188 12.289062 L 140.003906 12.289062 L 140.003906 17.339844 L 152.746094 17.339844 L 152.746094 18.78125 L 140.003906 18.78125 L 140.003906 24.402344 L 153.34375 24.402344 L 153.34375 25.925781 Z M 138.1875 25.925781 " fill-opacity="1" fill-rule="nonzero"/><path fill="#e3000f" d="M 161.023438 25.925781 L 161.023438 10.769531 L 172.769531 10.769531 C 174.863281 10.769531 176.40625 11.0625 177.386719 11.652344 C 178.339844 12.230469 178.992188 13.226562 179.34375 14.640625 C 179.574219 15.558594 179.691406 16.789062 179.691406 18.34375 C 179.691406 20.808594 179.355469 22.601562 178.703125 23.722656 C 178.164062 24.648438 177.289062 25.261719 176.078125 25.589844 C 175.28125 25.8125 174.179688 25.925781 172.769531 25.925781 Z M 162.839844 24.402344 L 172.914062 24.402344 C 175.046875 24.402344 176.417969 23.914062 177.019531 22.921875 C 177.535156 22.089844 177.796875 20.589844 177.796875 18.429688 C 177.796875 16.082031 177.527344 14.492188 176.988281 13.652344 C 176.398438 12.742188 174.996094 12.289062 172.78125 12.289062 L 162.839844 12.289062 Z M 162.839844 24.402344 " fill-opacity="1" fill-rule="nonzero"/><path fill="#e3000f" d="M 187.742188 25.925781 L 187.742188 10.769531 L 202.796875 10.769531 L 202.796875 12.289062 L 189.558594 12.289062 L 189.558594 17.339844 L 202.300781 17.339844 L 202.300781 18.78125 L 189.558594 18.78125 L 189.558594 24.402344 L 202.894531 24.402344 L 202.894531 25.925781 Z M 187.742188 25.925781 " fill-opacity="1" fill-rule="nonzero"/><path fill="#e3000f" d="M 210.578125 25.925781 L 210.578125 10.769531 L 223.035156 10.769531 C 224.453125 10.769531 225.464844 10.90625 226.078125 11.175781 C 226.886719 11.542969 227.449219 12.117188 227.761719 12.917969 C 227.988281 13.515625 228.101562 14.332031 228.101562 15.386719 C 228.101562 17.070312 227.703125 18.152344 226.894531 18.617188 C 226.460938 18.867188 225.730469 19.042969 224.707031 19.148438 C 226.183594 19.304688 227.117188 19.757812 227.511719 20.519531 C 227.714844 20.898438 227.8125 21.390625 227.8125 21.980469 L 227.8125 25.925781 L 226 25.925781 L 226 23.035156 C 226 21.722656 225.804688 20.871094 225.40625 20.484375 C 224.953125 20.039062 224.074219 19.816406 222.765625 19.816406 L 212.394531 19.816406 L 212.394531 25.925781 Z M 212.394531 18.375 L 222.335938 18.375 C 223.753906 18.375 224.710938 18.210938 225.214844 17.898438 C 225.875 17.472656 226.207031 16.613281 226.207031 15.308594 C 226.207031 13.972656 225.835938 13.109375 225.089844 12.707031 C 224.570312 12.425781 223.617188 12.289062 222.226562 12.289062 L 212.394531 12.289062 Z M 212.394531 18.375 " fill-opacity="1" fill-rule="nonzero"/><path fill="#e3000f" d="M 250.109375 22.515625 L 237.75 22.515625 L 235.734375 25.925781 L 233.734375 25.925781 L 242.628906 10.769531 L 245.207031 10.769531 L 254.109375 25.925781 L 252.105469 25.925781 Z M 249.253906 21.070312 L 243.917969 12.035156 L 238.597656 21.070312 Z M 249.253906 21.070312 " fill-opacity="1" fill-rule="nonzero"/><path fill="#e3000f" d="M 259.453125 21.207031 L 261.269531 21.207031 L 261.269531 21.605469 C 261.269531 22.28125 261.332031 22.777344 261.472656 23.105469 C 261.652344 23.570312 262.011719 23.894531 262.554688 24.070312 C 263.417969 24.359375 265.171875 24.503906 267.828125 24.503906 C 270.8125 24.503906 272.746094 24.304688 273.640625 23.90625 C 274.410156 23.550781 274.804688 22.765625 274.804688 21.539062 C 274.804688 20.367188 274.332031 19.648438 273.398438 19.386719 C 272.628906 19.164062 271.324219 19.042969 269.480469 19.03125 C 268.183594 19.042969 266.875 19.058594 265.570312 19.0625 C 264.460938 19.058594 263.625 19.019531 263.070312 18.953125 C 262.050781 18.835938 261.273438 18.585938 260.726562 18.21875 C 259.878906 17.640625 259.453125 16.644531 259.453125 15.242188 C 259.453125 13.671875 259.859375 12.558594 260.675781 11.890625 C 261.386719 11.304688 262.640625 10.917969 264.433594 10.734375 C 265.304688 10.644531 266.640625 10.597656 268.449219 10.597656 C 271.703125 10.597656 273.808594 10.898438 274.777344 11.503906 C 275.390625 11.875 275.808594 12.394531 276.03125 13.054688 C 276.1875 13.488281 276.277344 14.167969 276.304688 15.085938 L 274.535156 15.085938 C 274.496094 14.003906 274.253906 13.296875 273.804688 12.957031 C 273.132812 12.445312 271.355469 12.191406 268.464844 12.191406 C 265.703125 12.191406 263.808594 12.355469 262.785156 12.675781 C 261.824219 12.984375 261.347656 13.789062 261.347656 15.101562 C 261.347656 16.101562 261.652344 16.75 262.273438 17.039062 C 262.769531 17.269531 263.722656 17.40625 265.132812 17.453125 C 265.34375 17.457031 266.308594 17.464844 268.03125 17.464844 C 270.597656 17.464844 272.28125 17.519531 273.097656 17.617188 C 274.40625 17.785156 275.324219 18.160156 275.859375 18.742188 C 276.414062 19.347656 276.695312 20.300781 276.695312 21.605469 C 276.695312 22.851562 276.441406 23.800781 275.933594 24.457031 C 275.402344 25.144531 274.554688 25.597656 273.371094 25.8125 C 272.347656 25.996094 270.617188 26.089844 268.175781 26.089844 C 264.867188 26.089844 262.664062 25.898438 261.570312 25.511719 C 260.160156 25.027344 259.453125 23.9375 259.453125 22.25 Z M 259.453125 21.207031 " fill-opacity="1" fill-rule="nonzero"/><path fill="#e3000f" d="M 291.695312 18.046875 L 298.886719 10.769531 L 301.367188 10.769531 L 292.605469 19.550781 L 292.605469 25.925781 L 290.789062 25.925781 L 290.789062 19.550781 L 282.027344 10.769531 L 284.5 10.769531 Z M 291.695312 18.046875 " fill-opacity="1" fill-rule="nonzero"/><path fill="#e3000f" d="M 316.675781 10.597656 C 319.28125 10.597656 320.742188 10.613281 321.058594 10.632812 C 323.027344 10.789062 324.375 11.242188 325.097656 11.988281 C 325.699219 12.609375 326.078125 13.617188 326.226562 15.019531 C 326.28125 15.5 326.304688 16.605469 326.304688 18.34375 C 326.304688 20.078125 326.28125 21.1875 326.226562 21.671875 C 326.078125 23.066406 325.699219 24.082031 325.097656 24.707031 C 324.367188 25.453125 323.003906 25.90625 321.011719 26.054688 C 320.742188 26.082031 319.261719 26.089844 316.578125 26.089844 C 313.894531 26.089844 312.414062 26.082031 312.136719 26.054688 C 310.148438 25.90625 308.789062 25.453125 308.058594 24.707031 C 307.449219 24.082031 307.078125 23.066406 306.929688 21.671875 C 306.875 21.1875 306.851562 20.085938 306.851562 18.351562 C 306.851562 16.613281 306.875 15.5 306.929688 15.019531 C 307.078125 13.617188 307.449219 12.609375 308.058594 11.988281 C 308.789062 11.234375 310.167969 10.78125 312.195312 10.632812 C 312.445312 10.613281 313.941406 10.597656 316.675781 10.597656 Z M 316.675781 12.191406 C 314.515625 12.191406 313.289062 12.195312 312.992188 12.210938 C 311.144531 12.320312 309.996094 12.621094 309.527344 13.121094 C 309.136719 13.535156 308.894531 14.378906 308.796875 15.648438 C 308.761719 16.070312 308.742188 16.96875 308.742188 18.351562 C 308.742188 19.726562 308.761719 20.628906 308.796875 21.050781 C 308.894531 22.3125 309.136719 23.152344 309.527344 23.570312 C 310.015625 24.089844 311.152344 24.398438 312.933594 24.488281 C 313.019531 24.503906 314.234375 24.503906 316.578125 24.503906 C 318.921875 24.503906 320.136719 24.503906 320.214844 24.488281 C 322.003906 24.398438 323.140625 24.089844 323.621094 23.570312 C 324.015625 23.152344 324.261719 22.3125 324.355469 21.050781 C 324.394531 20.628906 324.414062 19.726562 324.414062 18.351562 C 324.414062 16.953125 324.394531 16.050781 324.367188 15.648438 C 324.261719 14.386719 324.015625 13.539062 323.621094 13.121094 C 323.164062 12.628906 322.050781 12.335938 320.261719 12.222656 C 319.914062 12.195312 318.71875 12.191406 316.675781 12.191406 Z M 316.675781 12.191406 " fill-opacity="1" fill-rule="nonzero"/><path fill="#e3000f" d="M 334.355469 25.925781 L 334.355469 10.769531 L 337.277344 10.769531 L 351.546875 24.628906 L 351.546875 10.769531 L 353.363281 10.769531 L 353.363281 25.925781 L 350.445312 25.925781 L 336.171875 12.066406 L 336.171875 25.925781 Z M 334.355469 25.925781 " fill-opacity="1" fill-rule="nonzero"/><g clip-path="url(#910673443f)"><path stroke-linecap="butt" transform="matrix(0.75, 0, 0, 0.75, 16.94143, 4.440039)" fill="none" stroke-linejoin="miter" d="M -0.00003213 0.00182291 L 454.520831 0.00182291 L 454.520831 34.220575 L -0.00003213 34.220575 Z M -0.00003213 0.00182291 " stroke="#e3000f" stroke-width="2" stroke-opacity="1" stroke-miterlimit="4"/></g><g clip-path="url(#91a8cfe85b)"><path stroke-linecap="butt" transform="matrix(0.75, 0, 0, 0.75, 16.98793, 4.853238)" fill="none" stroke-linejoin="miter" d="M 0.000468194 -0.00223454 L 453.786956 -0.00223454 L 453.786956 33.013393 L 0.000468194 33.013393 Z M 0.000468194 -0.00223454 " stroke="#e3000f" stroke-width="2" stroke-opacity="1" stroke-miterlimit="4"/></g></svg>