<svg xmlns="http://www.w3.org/2000/svg" xmlns:xlink="http://www.w3.org/1999/xlink" width="460" zoomAndPan="magnify" viewBox="0 0 345 30.000001" height="40" preserveAspectRatio="xMidYMid meet" version="1.0"><defs><clipPath id="ef5b4c4b91"><path d="M 98.332031 2.101562 L 338.679688 2.101562 L 338.679688 26.445312 L 98.332031 26.445312 Z M 98.332031 2.101562 " clip-rule="nonzero"/></clipPath><clipPath id="a9461308ab"><path d="M 8.410156 2.101562 L 100.679688 2.101562 L 100.679688 26.445312 L 8.410156 26.445312 Z M 8.410156 2.101562 " clip-rule="nonzero"/></clipPath><clipPath id="5bc78de4dc"><path d="M 8.320312 1.917969 L 337.097656 1.917969 L 337.097656 26.59375 L 8.320312 26.59375 Z M 8.320312 1.917969 " clip-rule="nonzero"/></clipPath><clipPath id="606f2219ee"><path d="M 8.382812 2.316406 L 336.957031 2.316406 L 336.957031 26.210938 L 8.382812 26.210938 Z M 8.382812 2.316406 " clip-rule="nonzero"/></clipPath></defs><g clip-path="url(#ef5b4c4b91)"><path fill="#ffffff" d="M 98.332031 2.101562 L 338.703125 2.101562 L 338.703125 26.445312 L 98.332031 26.445312 Z M 98.332031 2.101562 " fill-opacity="1" fill-rule="nonzero"/></g><g clip-path="url(#a9461308ab)"><path fill="#e3000f" d="M 8.410156 2.101562 L 100.703125 2.101562 L 100.703125 26.445312 L 8.410156 26.445312 Z M 8.410156 2.101562 " fill-opacity="1" fill-rule="nonzero"/></g><path fill="#ffffff" d="M 18.601562 21.527344 L 18.601562 10.644531 L 12.21875 10.644531 L 12.21875 7.09375 L 29.371094 7.09375 L 29.371094 10.644531 L 22.992188 10.644531 L 22.992188 21.527344 Z M 18.601562 21.527344 " fill-opacity="1" fill-rule="nonzero"/><path fill="#ffffff" d="M 30.828125 7.09375 L 35.191406 7.09375 L 35.191406 14.195312 C 35.191406 14.335938 35.191406 14.460938 35.191406 14.574219 C 35.191406 14.675781 35.191406 14.742188 35.191406 14.753906 C 35.191406 15.601562 35.222656 16.191406 35.292969 16.527344 C 35.457031 17.441406 36.097656 17.96875 37.207031 18.101562 C 37.710938 18.171875 38.496094 18.203125 39.554688 18.203125 C 41.117188 18.203125 42.214844 18.175781 42.859375 18.128906 C 43.847656 18.042969 44.453125 17.671875 44.675781 17.011719 C 44.824219 16.574219 44.890625 15.886719 44.875 14.957031 L 44.875 7.09375 L 49.238281 7.09375 L 49.238281 14.652344 C 49.238281 16.425781 49.164062 17.664062 49.011719 18.355469 C 48.671875 19.777344 47.726562 20.738281 46.164062 21.246094 C 45.40625 21.5 44.351562 21.640625 43.007812 21.679688 C 43.597656 21.660156 42.542969 21.652344 39.855469 21.652344 C 37.636719 21.652344 36.085938 21.609375 35.214844 21.527344 C 32.855469 21.308594 31.480469 20.257812 31.078125 18.378906 C 30.910156 17.621094 30.828125 16.445312 30.828125 14.855469 Z M 38.972656 2.933594 L 38.972656 5.46875 L 35.214844 5.46875 L 35.214844 2.933594 Z M 44.824219 2.933594 L 44.824219 5.46875 L 41.066406 5.46875 L 41.066406 2.933594 Z M 44.824219 2.933594 " fill-opacity="1" fill-rule="nonzero"/><path fill="#ffffff" d="M 54.25 21.527344 L 54.25 7.09375 L 66.636719 7.09375 C 68.082031 7.09375 69.113281 7.167969 69.738281 7.320312 C 70.863281 7.625 71.613281 8.253906 71.984375 9.199219 C 72.234375 9.859375 72.363281 10.71875 72.363281 11.785156 C 72.363281 13.53125 71.945312 14.691406 71.125 15.261719 C 70.703125 15.566406 69.777344 15.832031 68.351562 16.046875 C 68.515625 16.046875 68.753906 16.058594 69.058594 16.074219 C 70.078125 16.125 70.773438 16.261719 71.125 16.476562 C 71.8125 16.921875 72.160156 17.839844 72.160156 19.242188 L 72.160156 21.527344 L 67.722656 21.527344 L 67.722656 19.726562 C 67.722656 18.648438 67.34375 18.042969 66.585938 17.925781 C 66.347656 17.890625 65.929688 17.875 65.324219 17.875 L 58.589844 17.875 L 58.589844 21.527344 Z M 58.589844 14.347656 L 65.425781 14.347656 C 66.332031 14.347656 66.925781 14.289062 67.214844 14.171875 C 67.722656 13.96875 67.972656 13.484375 67.972656 12.722656 C 67.972656 11.796875 67.804688 11.203125 67.46875 10.949219 C 67.179688 10.734375 66.5625 10.621094 65.601562 10.621094 L 58.589844 10.621094 Z M 58.589844 14.347656 " fill-opacity="1" fill-rule="nonzero"/><path fill="#ffffff" d="M 77.289062 21.527344 L 77.289062 7.09375 L 81.652344 7.09375 L 81.652344 12.472656 L 83.949219 12.472656 L 89.875 7.09375 L 95.878906 7.09375 L 87.65625 14.222656 L 96.710938 21.527344 L 90.355469 21.527344 L 83.847656 15.972656 L 81.652344 15.972656 L 81.652344 21.527344 Z M 77.289062 21.527344 " fill-opacity="1" fill-rule="nonzero"/><path fill="#e3000f" d="M 104.515625 22.734375 L 104.515625 8.066406 L 118.46875 8.066406 L 118.46875 9.539062 L 106.269531 9.539062 L 106.269531 14.585938 L 117.851562 14.585938 L 117.851562 15.988281 L 106.269531 15.988281 L 106.269531 22.734375 Z M 104.515625 22.734375 " fill-opacity="1" fill-rule="nonzero"/><path fill="#e3000f" d="M 125.449219 22.734375 L 125.449219 8.066406 L 139.992188 8.066406 L 139.992188 9.539062 L 127.203125 9.539062 L 127.203125 14.425781 L 139.511719 14.425781 L 139.511719 15.820312 L 127.203125 15.820312 L 127.203125 21.261719 L 140.085938 21.261719 L 140.085938 22.734375 Z M 125.449219 22.734375 " fill-opacity="1" fill-rule="nonzero"/><path fill="#e3000f" d="M 147.503906 22.734375 L 147.503906 8.066406 L 158.847656 8.066406 C 160.875 8.066406 162.363281 8.351562 163.308594 8.921875 C 164.226562 9.480469 164.859375 10.445312 165.199219 11.8125 C 165.421875 12.703125 165.535156 13.894531 165.535156 15.398438 C 165.535156 17.78125 165.210938 19.519531 164.582031 20.601562 C 164.058594 21.496094 163.214844 22.09375 162.046875 22.410156 C 161.277344 22.625 160.210938 22.734375 158.847656 22.734375 Z M 149.257812 21.261719 L 158.988281 21.261719 C 161.050781 21.261719 162.375 20.785156 162.953125 19.828125 C 163.453125 19.023438 163.703125 17.570312 163.703125 15.480469 C 163.703125 13.210938 163.445312 11.667969 162.921875 10.855469 C 162.355469 9.976562 161 9.539062 158.863281 9.539062 L 149.257812 9.539062 Z M 149.257812 21.261719 " fill-opacity="1" fill-rule="nonzero"/><path fill="#e3000f" d="M 173.3125 22.734375 L 173.3125 8.066406 L 187.851562 8.066406 L 187.851562 9.539062 L 175.066406 9.539062 L 175.066406 14.425781 L 187.375 14.425781 L 187.375 15.820312 L 175.066406 15.820312 L 175.066406 21.261719 L 187.949219 21.261719 L 187.949219 22.734375 Z M 173.3125 22.734375 " fill-opacity="1" fill-rule="nonzero"/><path fill="#e3000f" d="M 195.367188 22.734375 L 195.367188 8.066406 L 207.398438 8.066406 C 208.769531 8.066406 209.746094 8.199219 210.339844 8.460938 C 211.121094 8.816406 211.664062 9.375 211.964844 10.148438 C 212.1875 10.722656 212.292969 11.515625 212.292969 12.539062 C 212.292969 14.167969 211.90625 15.214844 211.125 15.664062 C 210.710938 15.90625 210.003906 16.074219 209.015625 16.175781 C 210.4375 16.328125 211.339844 16.765625 211.726562 17.503906 C 211.921875 17.871094 212.015625 18.34375 212.015625 18.917969 L 212.015625 22.734375 L 210.261719 22.734375 L 210.261719 19.9375 C 210.261719 18.667969 210.074219 17.84375 209.6875 17.46875 C 209.253906 17.039062 208.402344 16.824219 207.140625 16.824219 L 197.121094 16.824219 L 197.121094 22.734375 Z M 197.121094 15.429688 L 206.726562 15.429688 C 208.09375 15.429688 209.019531 15.269531 209.503906 14.964844 C 210.140625 14.554688 210.464844 13.722656 210.464844 12.460938 C 210.464844 11.167969 210.105469 10.332031 209.386719 9.945312 C 208.882812 9.671875 207.960938 9.539062 206.617188 9.539062 L 197.121094 9.539062 Z M 197.121094 15.429688 " fill-opacity="1" fill-rule="nonzero"/><path fill="#e3000f" d="M 233.550781 19.4375 L 221.613281 19.4375 L 219.664062 22.734375 L 217.734375 22.734375 L 226.324219 8.066406 L 228.8125 8.066406 L 237.414062 22.734375 L 235.480469 22.734375 Z M 232.722656 18.035156 L 227.570312 9.289062 L 222.433594 18.035156 Z M 232.722656 18.035156 " fill-opacity="1" fill-rule="nonzero"/><path fill="#e3000f" d="M 242.574219 18.167969 L 244.328125 18.167969 L 244.328125 18.554688 C 244.328125 19.207031 244.390625 19.691406 244.523438 20.007812 C 244.699219 20.457031 245.046875 20.769531 245.570312 20.9375 C 246.402344 21.21875 248.097656 21.359375 250.664062 21.359375 C 253.546875 21.359375 255.414062 21.167969 256.277344 20.78125 C 257.023438 20.4375 257.402344 19.675781 257.402344 18.492188 C 257.402344 17.355469 256.945312 16.660156 256.042969 16.40625 C 255.300781 16.191406 254.039062 16.074219 252.261719 16.0625 C 251.007812 16.074219 249.746094 16.089844 248.484375 16.09375 C 247.410156 16.089844 246.605469 16.050781 246.070312 15.988281 C 245.085938 15.871094 244.335938 15.632812 243.804688 15.277344 C 242.984375 14.71875 242.574219 13.753906 242.574219 12.398438 C 242.574219 10.875 242.964844 9.796875 243.753906 9.152344 C 244.441406 8.585938 245.652344 8.210938 247.386719 8.035156 C 248.226562 7.945312 249.519531 7.902344 251.265625 7.902344 C 254.40625 7.902344 256.441406 8.195312 257.375 8.777344 C 257.96875 9.136719 258.371094 9.640625 258.585938 10.28125 C 258.738281 10.699219 258.824219 11.359375 258.851562 12.246094 L 257.140625 12.246094 C 257.105469 11.199219 256.871094 10.515625 256.4375 10.183594 C 255.785156 9.691406 254.070312 9.441406 251.277344 9.441406 C 248.609375 9.441406 246.78125 9.601562 245.792969 9.910156 C 244.863281 10.210938 244.402344 10.988281 244.402344 12.257812 C 244.402344 13.226562 244.699219 13.855469 245.300781 14.136719 C 245.777344 14.355469 246.699219 14.492188 248.0625 14.535156 C 248.261719 14.542969 249.195312 14.546875 250.863281 14.546875 C 253.339844 14.546875 254.964844 14.597656 255.753906 14.691406 C 257.015625 14.859375 257.90625 15.21875 258.421875 15.785156 C 258.957031 16.367188 259.230469 17.292969 259.230469 18.554688 C 259.230469 19.757812 258.984375 20.679688 258.492188 21.3125 C 257.980469 21.980469 257.160156 22.417969 256.019531 22.625 C 255.03125 22.804688 253.359375 22.890625 251 22.890625 C 247.804688 22.890625 245.679688 22.707031 244.617188 22.335938 C 243.257812 21.863281 242.574219 20.8125 242.574219 19.175781 Z M 242.574219 18.167969 " fill-opacity="1" fill-rule="nonzero"/><path fill="#e3000f" d="M 273.71875 15.113281 L 280.660156 8.066406 L 283.058594 8.066406 L 274.59375 16.5625 L 274.59375 22.734375 L 272.839844 22.734375 L 272.839844 16.5625 L 264.378906 8.066406 L 266.769531 8.066406 Z M 273.71875 15.113281 " fill-opacity="1" fill-rule="nonzero"/><path fill="#e3000f" d="M 297.84375 7.902344 C 300.359375 7.902344 301.773438 7.914062 302.074219 7.933594 C 303.980469 8.085938 305.28125 8.523438 305.980469 9.246094 C 306.558594 9.847656 306.925781 10.824219 307.070312 12.183594 C 307.121094 12.644531 307.144531 13.714844 307.144531 15.398438 C 307.144531 17.078125 307.121094 18.148438 307.070312 18.617188 C 306.925781 19.96875 306.558594 20.953125 305.980469 21.554688 C 305.273438 22.277344 303.957031 22.714844 302.03125 22.859375 C 301.773438 22.886719 300.34375 22.890625 297.75 22.890625 C 295.160156 22.890625 293.726562 22.886719 293.460938 22.859375 C 291.539062 22.714844 290.226562 22.277344 289.519531 21.554688 C 288.933594 20.953125 288.574219 19.96875 288.429688 18.617188 C 288.378906 18.148438 288.355469 17.082031 288.355469 15.402344 C 288.355469 13.722656 288.378906 12.644531 288.429688 12.183594 C 288.574219 10.824219 288.933594 9.847656 289.519531 9.246094 C 290.226562 8.515625 291.558594 8.078125 293.519531 7.933594 C 293.757812 7.914062 295.203125 7.902344 297.84375 7.902344 Z M 297.84375 9.441406 C 295.757812 9.441406 294.570312 9.449219 294.289062 9.460938 C 292.503906 9.570312 291.394531 9.863281 290.941406 10.34375 C 290.5625 10.742188 290.328125 11.5625 290.234375 12.789062 C 290.203125 13.195312 290.183594 14.066406 290.183594 15.402344 C 290.183594 16.734375 290.203125 17.609375 290.234375 18.015625 C 290.328125 19.238281 290.5625 20.050781 290.941406 20.457031 C 291.414062 20.957031 292.511719 21.257812 294.230469 21.34375 C 294.3125 21.359375 295.484375 21.359375 297.75 21.359375 C 300.015625 21.359375 301.1875 21.359375 301.261719 21.34375 C 302.992188 21.257812 304.085938 20.957031 304.554688 20.457031 C 304.933594 20.050781 305.171875 19.238281 305.261719 18.015625 C 305.296875 17.609375 305.316406 16.734375 305.316406 15.402344 C 305.316406 14.054688 305.296875 13.175781 305.273438 12.789062 C 305.171875 11.566406 304.933594 10.75 304.554688 10.34375 C 304.113281 9.867188 303.035156 9.582031 301.308594 9.472656 C 300.972656 9.449219 299.820312 9.441406 297.84375 9.441406 Z M 297.84375 9.441406 " fill-opacity="1" fill-rule="nonzero"/><path fill="#e3000f" d="M 314.921875 22.734375 L 314.921875 8.066406 L 317.742188 8.066406 L 331.527344 21.476562 L 331.527344 8.066406 L 333.28125 8.066406 L 333.28125 22.734375 L 330.460938 22.734375 L 316.675781 9.324219 L 316.675781 22.734375 Z M 314.921875 22.734375 " fill-opacity="1" fill-rule="nonzero"/><g clip-path="url(#5bc78de4dc)"><path stroke-linecap="butt" transform="matrix(0.725806, 0, 0, 0.725806, 8.320187, 1.916782)" fill="none" stroke-linejoin="miter" d="M 0.000173098 0.00163518 L 453.359031 0.00163518 L 453.359031 34.123163 L 0.000173098 34.123163 Z M 0.000173098 0.00163518 " stroke="#e3000f" stroke-width="2" stroke-opacity="1" stroke-miterlimit="4"/></g><g clip-path="url(#606f2219ee)"><path stroke-linecap="butt" transform="matrix(0.725806, 0, 0, 0.725806, 8.382425, 2.315544)" fill="none" stroke-linejoin="miter" d="M 0.000534098 0.0011877 L 452.702824 0.0011877 L 452.702824 32.922544 L 0.000534098 32.922544 Z M 0.000534098 0.0011877 " stroke="#e3000f" stroke-width="2" stroke-opacity="1" stroke-miterlimit="4"/></g></svg>